<svg id="Capa_1" data-name="Capa 1" xmlns="http://www.w3.org/2000/svg" viewBox="0 0 356 356">
  <defs>
    <style>
      .cls-1 {
        fill: #fff;
      }
    </style>
  </defs>
  <g>
    <circle class="cls-1" cx="178" cy="178" r="171"/>
    <path d="M200,378c-98.1494,0-178-79.8506-178-178S101.8506,22,200,22s178,79.8506,178,178S298.1494,378,200,378Zm0-342C109.57,36,36,109.57,36,200s73.57,164,164,164,164-73.57,164-164S290.43,36,200,36Z" transform="translate(-22 -22)"/>
  </g>
  <g>
    <ellipse class="cls-1" cx="177.5" cy="106" rx="60.5" ry="37"/>
    <path d="M199.5,172c-37.8506,0-67.5-19.3271-67.5-44s29.6494-44,67.5-44S267,103.3271,267,128,237.3506,172,199.5,172Zm0-74c-29,0-53.5,13.7383-53.5,30s24.5,30,53.5,30S253,144.2617,253,128,228.5,98,199.5,98Z" transform="translate(-22 -22)"/>
  </g>
  <circle cx="178.5" cy="104.5" r="12.5"/>
  <path d="M232,322c-30.3936,0-59.0225-8.6182-80.6143-24.2666C129.2119,281.6621,117,260.0928,117,237h12c0,40.252,46.2056,73,103,73Z" transform="translate(-22 -22)"/>
</svg>
